HIERARCHY
ROOT Hips
{
	OFFSET 0.000000 0.000000 0.000000
	CHANNELS 6 Xposition Yposition Zposition Zrotation Yrotation Xrotation 
	JOINT LeftUpLeg_virtual
	{
		OFFSET 0.000000 0.000000 0.000000
		CHANNELS 3 Zrotation Yrotation Xrotation
		JOINT LeftUpLeg
		{
			OFFSET 10.205400 -3.823500 0.155100
			CHANNELS 3 Zrotation Yrotation Xrotation
			JOINT LeftLeg
			{
				OFFSET 0.708757 -12.982077 0.567790
				CHANNELS 3 Zrotation Yrotation Xrotation
				JOINT LeftFoot
				{
					OFFSET -0.708756 -10.717838 -2.184338
					CHANNELS 3 Zrotation Yrotation Xrotation
					JOINT LeftToeBase
					{
						OFFSET 0.108149 -7.191104 7.560241
						CHANNELS 3 Zrotation Yrotation Xrotation
						End Site
						{
							OFFSET 0.000000 0.000000 0.000000
						}
					}
				}
			}
		}
	}
	JOINT RightUpLeg_virtual
	{
		OFFSET 0.000000 0.000000 0.000000
		CHANNELS 3 Zrotation Yrotation Xrotation
		JOINT RightUpLeg
		{
			OFFSET -10.205400 -3.823500 0.005500
			CHANNELS 3 Zrotation Yrotation Xrotation
			JOINT RightLeg
			{
				OFFSET -0.708756 -12.982134 0.610632
				CHANNELS 3 Zrotation Yrotation Xrotation
				JOINT RightFoot
				{
					OFFSET 0.708754 -10.717769 -1.945823
					CHANNELS 3 Zrotation Yrotation Xrotation
					JOINT RightToeBase
					{
						OFFSET -0.108140 -7.191069 7.372968
						CHANNELS 3 Zrotation Yrotation Xrotation
						End Site
						{
							OFFSET 0.000000 0.000000 0.000000
						}
					}
				}
			}
		}
	}
	JOINT Spine_virtual
	{
		OFFSET 0.000000 0.000000 0.000000
		CHANNELS 3 Zrotation Yrotation Xrotation
		JOINT Spine
		{
			OFFSET 0.000000 6.876099 0.125700
			CHANNELS 3 Zrotation Yrotation Xrotation
			JOINT Spine1
			{
				OFFSET 0.000000 8.022060 0.146608
				CHANNELS 3 Zrotation Yrotation Xrotation
				JOINT Spine2
				{
					OFFSET 0.000000 9.168068 0.167552
					CHANNELS 3 Zrotation Yrotation Xrotation
					JOINT Neck_virtual
					{
						OFFSET 0.000000 0.000000 0.000000
						CHANNELS 3 Zrotation Yrotation Xrotation
						JOINT Neck
						{
							OFFSET 0.000000 10.314075 0.188496
							CHANNELS 3 Zrotation Yrotation Xrotation
							JOINT Head
							{
								OFFSET 0.000000 7.643700 -2.377400
								CHANNELS 3 Zrotation Yrotation Xrotation
								End Site
								{
									OFFSET 0.000000 0.000000 0.000000
								}
							}
						}
					}
					JOINT LeftShoulder_virtual
					{
						OFFSET 0.000000 0.000000 0.000000
						CHANNELS 3 Zrotation Yrotation Xrotation
						JOINT LeftShoulder
						{
							OFFSET 4.392200 8.824978 0.174984
							CHANNELS 3 Zrotation Yrotation Xrotation
							JOINT LeftArm
							{
								OFFSET 8.771219 -2.981674 -0.026999
								CHANNELS 3 Zrotation Yrotation Xrotation
								JOINT LeftForeArm
								{
									OFFSET 8.512804 0.000000 -0.000000
									CHANNELS 3 Zrotation Yrotation Xrotation
									JOINT LeftHand
									{
										OFFSET 18.484802 0.000000 -0.000000
										CHANNELS 3 Zrotation Yrotation Xrotation
										End Site
										{
											OFFSET 0.000000 0.000000 0.000000
										}
									}
								}
							}
						}
					}
					JOINT RightShoulder_virtual
					{
						OFFSET 0.000000 0.000000 0.000000
						CHANNELS 3 Zrotation Yrotation Xrotation
						JOINT RightShoulder
						{
							OFFSET -4.392200 8.824993 0.141379
							CHANNELS 3 Zrotation Yrotation Xrotation
							JOINT RightArm
							{
								OFFSET -8.771282 -2.981682 -0.094208
								CHANNELS 3 Zrotation Yrotation Xrotation
								JOINT RightForeArm
								{
									OFFSET -8.494598 0.000000 0.000000
									CHANNELS 3 Zrotation Yrotation Xrotation
									JOINT RightHand
									{
										OFFSET -18.483803 0.000000 0.000001
										CHANNELS 3 Zrotation Yrotation Xrotation
										End Site
										{
											OFFSET 0.000000 0.000000 0.000000
										}
									}
								}
							}
						}
					}
				}
			}
		}
	}
}
MOTION
Frames: 10
Frame Time: 0.033333
15.003417 34.670456 -20.117601 179.949216 1.252225 -179.910967 0.107242 -2.575818 8.037726 -4.995252 -2.138799 -26.866853 9.356312 10.974362 18.343624 -3.745918 2.431375 7.441205 0.000000 0.000000 0.000000 4.898555 -1.326771 6.517837 1.314878 8.196935 -22.873562 -5.714136 5.183682 16.308772 10.490707 6.655570 2.753796 0.000000 0.000000 0.000000 2.093605 0.699619 -4.180892 -1.544210 -3.947365 -11.741697 -1.836428 -1.640445 11.205813 0.010399 0.038089 0.020799 -2.206641 0.668308 12.794209 -1.678589 0.015695 21.071837 0.000000 0.000000 0.000000 -0.612986 1.306557 9.923955 -17.206012 -12.446561 2.170988 -47.773499 17.166723 15.266199 -0.715316 -35.660862 1.992772 0.000000 0.000000 0.000000 -4.600357 2.336849 9.387491 25.154178 6.066370 4.440640 47.539438 -16.626455 17.934272 -7.699678 32.132304 -4.237826 0.000000 0.000000 0.000000 
15.019836 34.663532 -20.107252 179.913139 1.363998 -179.828048 0.201852 -2.647320 8.132446 -5.253636 -1.842606 -26.758084 9.458577 11.213264 18.599780 -3.429830 2.742160 7.652009 0.000000 0.000000 0.000000 4.976524 -1.337117 6.361679 1.029671 8.626549 -23.079418 -5.722310 5.494154 16.115345 10.800793 7.068671 2.871647 0.000000 0.000000 0.000000 2.061074 0.672320 -4.287147 -1.563500 -3.793503 -11.711736 -1.813681 -1.494658 11.211881 0.027945 0.035897 0.074996 -2.180767 0.646428 12.853567 -1.676964 0.025960 21.120526 0.000000 0.000000 0.000000 -0.599609 1.221007 9.952622 -17.195109 -12.535652 2.149141 -47.675257 17.164267 15.350261 -0.723489 -35.737892 1.988443 0.000000 0.000000 0.000000 -4.599000 2.302260 9.315494 25.171445 5.991777 4.576193 47.560123 -16.497637 17.889836 -7.740968 32.222425 -4.297169 0.000000 0.000000 0.000000 
15.041627 34.657578 -20.087469 179.886979 1.371446 -179.819674 0.174570 -2.627421 8.078636 -5.297166 -1.487820 -26.729460 9.317382 10.871159 18.463799 -3.479783 2.737977 7.651947 0.000000 0.000000 0.000000 4.951540 -1.348663 6.315012 1.074171 8.421767 -23.073567 -5.610077 5.561680 16.130105 10.802513 7.052890 2.889555 0.000000 0.000000 0.000000 2.011955 0.741365 -4.370276 -1.575196 -3.916784 -11.648031 -1.844282 -1.603118 11.301542 0.030193 0.058191 0.024678 -2.197542 0.658961 12.886246 -1.726466 0.007607 21.185879 0.000000 0.000000 0.000000 -0.578079 1.296420 9.923610 -17.114791 -12.487192 2.170469 -47.573077 17.159665 15.389193 -0.731043 -35.954512 1.974130 0.000000 0.000000 0.000000 -4.579759 2.326289 9.388200 25.149516 6.086408 4.464840 47.573377 -16.468015 17.913703 -7.646513 32.298377 -4.233261 0.000000 0.000000 0.000000 
15.062167 34.652733 -20.053808 179.907183 1.413744 -179.905666 0.217929 -2.583592 8.036267 -5.285493 -1.567143 -26.620515 9.386100 10.831705 18.420310 -3.456114 2.788090 7.640298 0.000000 0.000000 0.000000 4.993927 -1.370205 6.293390 1.123694 8.204598 -23.047517 -5.438994 5.550820 16.040100 10.881646 7.124896 3.078124 0.000000 0.000000 0.000000 1.998231 0.768967 -4.320950 -1.587368 -3.965487 -11.557672 -1.820312 -1.649781 11.282211 -0.038848 0.042009 0.015887 -2.105402 0.602219 12.915576 -1.664701 0.082158 21.153683 0.000000 0.000000 0.000000 -0.490300 1.297769 9.959420 -17.042251 -12.479471 2.180766 -47.440496 17.153532 15.489459 -0.801742 -36.260566 2.025730 0.000000 0.000000 0.000000 -4.486373 2.348307 9.430754 25.161561 6.089939 4.451205 47.555271 -16.384381 17.967205 -7.601699 32.383863 -4.232981 0.000000 0.000000 0.000000 
15.087713 34.649002 -20.010246 179.857473 1.524659 -179.905858 0.147693 -2.536654 7.968347 -5.320894 -1.344329 -26.587293 9.394735 10.565487 18.366541 -3.421924 2.817912 7.524886 0.000000 0.000000 0.000000 4.966369 -1.376584 6.244540 1.139149 8.018894 -23.083104 -5.323978 5.630619 16.074760 10.892296 7.031438 3.123670 0.000000 0.000000 0.000000 1.945271 0.698086 -4.366085 -1.614201 -3.930593 -11.467542 -1.761163 -1.620256 11.285320 0.028108 0.126854 0.007053 -2.138465 0.611528 12.949695 -1.639340 0.134120 21.174160 0.000000 0.000000 0.000000 -0.519841 1.241142 9.982183 -17.009765 -12.547186 2.193023 -47.327166 17.093947 15.607302 -0.871264 -36.576223 2.074013 0.000000 0.000000 0.000000 -4.525871 2.294745 9.449011 25.196201 6.040811 4.424890 47.522622 -16.334186 18.038822 -7.479615 32.370688 -4.206351 0.000000 0.000000 0.000000 
15.105111 34.647442 -19.956032 179.845247 1.675045 -179.995319 0.116932 -2.488463 7.999944 -5.093225 -1.864461 -26.544130 9.408157 10.727089 18.382535 -3.174809 3.003827 7.486953 0.000000 0.000000 0.000000 4.987425 -1.387774 6.279856 1.122477 7.968535 -23.123645 -5.222641 5.566569 15.945160 10.969169 7.148118 3.311055 0.000000 0.000000 0.000000 1.939042 0.794583 -4.281971 -1.640042 -3.859786 -11.386619 -1.773634 -1.715928 11.242581 0.004616 0.129064 -0.002013 -2.051635 0.693462 12.936782 -1.597971 0.194941 21.139314 0.000000 0.000000 0.000000 -0.449359 1.212438 9.963731 -17.007864 -12.586679 2.178763 -47.256894 16.987061 15.633111 -0.975831 -36.816052 2.116194 0.000000 0.000000 0.000000 -4.442817 2.290998 9.452238 25.276199 6.018233 4.470950 47.407431 -16.328549 18.097017 -7.353412 32.362782 -4.119663 0.000000 0.000000 0.000000 
15.121247 34.648155 -19.897984 179.852295 1.764966 179.869986 0.103130 -2.475299 8.094519 -5.068117 -1.990662 -26.545131 9.485853 10.667182 18.281199 -3.072180 3.059934 7.581404 0.000000 0.000000 0.000000 5.007160 -1.504477 6.375050 1.143563 8.036891 -23.165242 -5.186101 5.642059 15.692875 11.020859 7.136498 3.531884 0.000000 0.000000 0.000000 1.909600 0.835091 -4.157638 -1.612107 -3.992329 -11.287590 -1.745635 -1.724298 11.204233 -0.008614 0.045165 -0.017412 -2.051536 0.522781 12.909471 -1.590129 0.244481 21.084721 0.000000 0.000000 0.000000 -0.437604 1.241718 9.955946 -17.023319 -12.570290 2.207763 -47.246761 16.941099 15.636011 -1.082937 -36.935481 2.182474 0.000000 0.000000 0.000000 -4.419512 2.302377 9.441929 25.327916 6.108785 4.431104 47.269246 -16.245540 18.103510 -7.267161 32.237724 -4.108515 0.000000 0.000000 0.000000 
15.134406 34.649906 -19.832056 179.833922 1.866644 179.825193 0.034183 -2.396972 8.159345 -5.096935 -1.927105 -26.638363 9.653699 10.483418 18.247796 -3.067369 3.042539 7.590031 0.000000 0.000000 0.000000 5.021809 -1.511639 6.440500 1.091767 8.217939 -23.268725 -5.291511 5.456229 15.570123 11.057894 7.226208 3.623372 0.000000 0.000000 0.000000 1.897904 0.828218 -4.044794 -1.588098 -3.977912 -11.225833 -1.729392 -1.749802 11.103924 0.036999 0.044811 -0.030274 -2.075257 0.534223 12.789166 -1.577957 0.268728 20.961294 0.000000 0.000000 0.000000 -0.470969 1.203263 9.911102 -17.018263 -12.626805 2.239696 -47.259578 16.920795 15.653163 -1.174225 -37.042394 2.192580 0.000000 0.000000 0.000000 -4.445667 2.241582 9.359110 25.446853 6.180858 4.433657 47.045377 -16.168429 18.250861 -7.228989 32.177841 -4.134441 0.000000 0.000000 0.000000 
15.157035 34.652954 -19.765707 179.883714 1.860988 179.843607 -0.000302 -2.301520 8.186554 -5.145490 -1.932201 -26.791245 9.791655 10.203351 18.151258 -3.097846 3.035317 7.711102 0.000000 0.000000 0.000000 5.074478 -1.486844 6.468567 1.118406 8.399013 -23.427890 -5.397053 5.497684 15.451210 10.965672 7.135449 3.654526 0.000000 0.000000 0.000000 1.905624 0.902985 -3.998839 -1.533978 -3.921686 -11.126822 -1.699358 -1.742610 11.022073 0.031334 0.085476 -0.026373 -2.052674 0.493661 12.738769 -1.582448 0.268532 20.864715 0.000000 0.000000 0.000000 -0.455162 1.154581 9.890169 -16.997834 -12.710183 2.166015 -47.332610 16.917460 15.755455 -1.237317 -37.111864 2.212186 0.000000 0.000000 0.000000 -4.428635 2.164856 9.257776 25.506650 6.146714 4.399954 46.861136 -16.144272 18.174725 -7.102349 32.128660 -4.056198 0.000000 0.000000 0.000000 
15.190822 34.657078 -19.697598 179.893509 1.785478 179.726934 -0.026929 -2.167317 8.233197 -5.135270 -2.016175 -26.901723 9.949235 9.891390 17.929042 -3.199980 3.037937 7.953675 0.000000 0.000000 0.000000 5.117177 -1.488176 6.608049 1.160294 8.538621 -23.527799 -5.506349 5.461612 15.451768 10.841090 7.130888 3.829903 0.000000 0.000000 0.000000 1.935218 0.824248 -3.767556 -1.467386 -3.869075 -10.988429 -1.658972 -1.725629 10.854415 0.036502 0.194768 -0.032392 -2.027893 0.474517 12.510410 -1.574790 0.285435 20.582043 0.000000 0.000000 0.000000 -0.449292 1.120710 9.783122 -16.960173 -12.767487 2.270269 -47.373168 16.955347 15.835672 -1.223507 -37.163613 2.187551 0.000000 0.000000 0.000000 -4.421428 2.104581 9.166202 25.583025 6.204275 4.337825 46.635394 -16.197167 18.251341 -7.055111 32.086193 -4.010066 0.000000 0.000000 0.000000 
